<mxfile host="Electron" modified="2024-06-07T00:47:13.457Z" agent="Mozilla/5.0 (Macintosh; Intel Mac OS X 10_15_7) AppleWebKit/537.36 (KHTML, like Gecko) draw.io/24.4.13 Chrome/124.0.6367.207 Electron/30.0.6 Safari/537.36" etag="i3gOEYP3q_nJ0BLzlUhQ" version="24.4.13" type="device">
  <diagram name="Page-1" id="_f-h18ocnEB4iOxPGBQ4">
    <mxGraphModel dx="2141" dy="924" grid="1" gridSize="10" guides="1" tooltips="1" connect="1" arrows="1" fold="1" page="1" pageScale="1" pageWidth="827" pageHeight="1169" math="0" shadow="0">
      <root>
        <mxCell id="0" />
        <mxCell id="1" parent="0" />
        <mxCell id="DkE2EI-Y3YgHdCdcs4yU-56" value="Region B" style="rounded=0;whiteSpace=wrap;html=1;sketch=1;jiggle=2;curveFitting=1;strokeColor=default;align=left;verticalAlign=bottom;fontFamily=Gloria Hallelujah;fontSource=https%3A%2F%2Ffonts.googleapis.com%2Fcss%3Ffamily%3DGloria%2BHallelujah;fontSize=16;fontColor=default;labelBackgroundColor=default;fillColor=default;" vertex="1" parent="1">
          <mxGeometry x="480" y="490" width="300" height="810" as="geometry" />
        </mxCell>
        <mxCell id="DkE2EI-Y3YgHdCdcs4yU-55" value="Region A" style="rounded=0;whiteSpace=wrap;html=1;sketch=1;jiggle=2;curveFitting=1;strokeColor=default;align=left;verticalAlign=bottom;fontFamily=Gloria Hallelujah;fontSource=https%3A%2F%2Ffonts.googleapis.com%2Fcss%3Ffamily%3DGloria%2BHallelujah;fontSize=16;fontColor=default;labelBackgroundColor=default;fillColor=default;" vertex="1" parent="1">
          <mxGeometry x="-80" y="490" width="540" height="810" as="geometry" />
        </mxCell>
        <mxCell id="DkE2EI-Y3YgHdCdcs4yU-33" style="edgeStyle=orthogonalEdgeStyle;curved=1;rounded=0;orthogonalLoop=1;jettySize=auto;html=1;exitX=0;exitY=0.5;exitDx=0;exitDy=0;dashed=1;strokeColor=#FF8000;strokeWidth=2;align=center;verticalAlign=middle;fontFamily=Gloria Hallelujah;fontSource=https%3A%2F%2Ffonts.googleapis.com%2Fcss%3Ffamily%3DGloria%2BHallelujah;fontSize=16;fontColor=default;labelBackgroundColor=default;endArrow=classic;endFill=1;flowAnimation=1;" edge="1" parent="1" source="DkE2EI-Y3YgHdCdcs4yU-1" target="DkE2EI-Y3YgHdCdcs4yU-2">
          <mxGeometry relative="1" as="geometry" />
        </mxCell>
        <mxCell id="DkE2EI-Y3YgHdCdcs4yU-34" style="edgeStyle=orthogonalEdgeStyle;curved=1;rounded=0;orthogonalLoop=1;jettySize=auto;html=1;exitX=1;exitY=0.5;exitDx=0;exitDy=0;dashed=1;strokeColor=#FF8000;strokeWidth=2;align=center;verticalAlign=middle;fontFamily=Gloria Hallelujah;fontSource=https%3A%2F%2Ffonts.googleapis.com%2Fcss%3Ffamily%3DGloria%2BHallelujah;fontSize=16;fontColor=default;labelBackgroundColor=default;endArrow=classic;endFill=1;flowAnimation=1;" edge="1" parent="1" source="DkE2EI-Y3YgHdCdcs4yU-1" target="DkE2EI-Y3YgHdCdcs4yU-4">
          <mxGeometry relative="1" as="geometry" />
        </mxCell>
        <mxCell id="DkE2EI-Y3YgHdCdcs4yU-1" value="CDN" style="rounded=0;whiteSpace=wrap;html=1;sketch=1;curveFitting=1;jiggle=2;fontFamily=Gloria Hallelujah;fontSource=https%3A%2F%2Ffonts.googleapis.com%2Fcss%3Ffamily%3DGloria%2BHallelujah;fontSize=16;fillColor=#f8cecc;strokeColor=#b85450;" vertex="1" parent="1">
          <mxGeometry x="360" y="280" width="120" height="70" as="geometry" />
        </mxCell>
        <mxCell id="DkE2EI-Y3YgHdCdcs4yU-35" style="edgeStyle=orthogonalEdgeStyle;curved=1;rounded=0;orthogonalLoop=1;jettySize=auto;html=1;exitX=0.25;exitY=1;exitDx=0;exitDy=0;dashed=1;strokeColor=#7F00FF;strokeWidth=2;align=center;verticalAlign=middle;fontFamily=Gloria Hallelujah;fontSource=https%3A%2F%2Ffonts.googleapis.com%2Fcss%3Ffamily%3DGloria%2BHallelujah;fontSize=16;fontColor=default;labelBackgroundColor=default;endArrow=classic;endFill=1;flowAnimation=1;" edge="1" parent="1" source="DkE2EI-Y3YgHdCdcs4yU-2" target="DkE2EI-Y3YgHdCdcs4yU-8">
          <mxGeometry relative="1" as="geometry" />
        </mxCell>
        <mxCell id="DkE2EI-Y3YgHdCdcs4yU-36" style="edgeStyle=orthogonalEdgeStyle;curved=1;rounded=0;orthogonalLoop=1;jettySize=auto;html=1;exitX=0.5;exitY=1;exitDx=0;exitDy=0;dashed=1;strokeColor=#7F00FF;strokeWidth=2;align=center;verticalAlign=middle;fontFamily=Gloria Hallelujah;fontSource=https%3A%2F%2Ffonts.googleapis.com%2Fcss%3Ffamily%3DGloria%2BHallelujah;fontSize=16;fontColor=default;labelBackgroundColor=default;endArrow=classic;endFill=1;flowAnimation=1;" edge="1" parent="1" source="DkE2EI-Y3YgHdCdcs4yU-2" target="DkE2EI-Y3YgHdCdcs4yU-9">
          <mxGeometry relative="1" as="geometry" />
        </mxCell>
        <mxCell id="DkE2EI-Y3YgHdCdcs4yU-37" style="edgeStyle=orthogonalEdgeStyle;curved=1;rounded=0;orthogonalLoop=1;jettySize=auto;html=1;exitX=0.75;exitY=1;exitDx=0;exitDy=0;dashed=1;strokeColor=#7F00FF;strokeWidth=2;align=center;verticalAlign=middle;fontFamily=Gloria Hallelujah;fontSource=https%3A%2F%2Ffonts.googleapis.com%2Fcss%3Ffamily%3DGloria%2BHallelujah;fontSize=16;fontColor=default;labelBackgroundColor=default;endArrow=classic;endFill=1;flowAnimation=1;" edge="1" parent="1" source="DkE2EI-Y3YgHdCdcs4yU-2" target="DkE2EI-Y3YgHdCdcs4yU-10">
          <mxGeometry relative="1" as="geometry" />
        </mxCell>
        <mxCell id="DkE2EI-Y3YgHdCdcs4yU-2" value="&lt;div&gt;External&lt;/div&gt;API&lt;div&gt;Gateway&lt;/div&gt;" style="rounded=0;whiteSpace=wrap;html=1;sketch=1;curveFitting=1;jiggle=2;fontFamily=Gloria Hallelujah;fontSource=https%3A%2F%2Ffonts.googleapis.com%2Fcss%3Ffamily%3DGloria%2BHallelujah;fontSize=16;fillColor=#ffe6cc;strokeColor=#d79b00;" vertex="1" parent="1">
          <mxGeometry x="100" y="520" width="160" height="90" as="geometry" />
        </mxCell>
        <mxCell id="DkE2EI-Y3YgHdCdcs4yU-38" style="edgeStyle=orthogonalEdgeStyle;curved=1;rounded=0;orthogonalLoop=1;jettySize=auto;html=1;entryX=0.75;entryY=0;entryDx=0;entryDy=0;dashed=1;strokeColor=#7F00FF;strokeWidth=2;align=center;verticalAlign=middle;fontFamily=Gloria Hallelujah;fontSource=https%3A%2F%2Ffonts.googleapis.com%2Fcss%3Ffamily%3DGloria%2BHallelujah;fontSize=16;fontColor=default;labelBackgroundColor=default;endArrow=classic;endFill=1;flowAnimation=1;" edge="1" parent="1" source="DkE2EI-Y3YgHdCdcs4yU-4" target="DkE2EI-Y3YgHdCdcs4yU-13">
          <mxGeometry relative="1" as="geometry" />
        </mxCell>
        <mxCell id="DkE2EI-Y3YgHdCdcs4yU-4" value="&lt;div&gt;External&lt;/div&gt;API&lt;div&gt;Gateway&lt;/div&gt;" style="rounded=0;whiteSpace=wrap;html=1;sketch=1;curveFitting=1;jiggle=2;fontFamily=Gloria Hallelujah;fontSource=https%3A%2F%2Ffonts.googleapis.com%2Fcss%3Ffamily%3DGloria%2BHallelujah;fontSize=16;fillColor=#ffe6cc;strokeColor=#d79b00;" vertex="1" parent="1">
          <mxGeometry x="570" y="520" width="160" height="90" as="geometry" />
        </mxCell>
        <mxCell id="DkE2EI-Y3YgHdCdcs4yU-5" value="" style="endArrow=none;dashed=1;html=1;rounded=0;fontFamily=Gloria Hallelujah;fontSource=https%3A%2F%2Ffonts.googleapis.com%2Fcss%3Ffamily%3DGloria%2BHallelujah;fontSize=16;fontColor=default;strokeWidth=2;dashPattern=1 2;strokeColor=#CCCCCC;" edge="1" parent="1">
          <mxGeometry width="50" height="50" relative="1" as="geometry">
            <mxPoint x="-60" y="790" as="sourcePoint" />
            <mxPoint x="450" y="790" as="targetPoint" />
          </mxGeometry>
        </mxCell>
        <mxCell id="DkE2EI-Y3YgHdCdcs4yU-6" value="Edge (Close to Client)" style="text;html=1;align=center;verticalAlign=middle;whiteSpace=wrap;rounded=0;fontFamily=Gloria Hallelujah;fontSource=https%3A%2F%2Ffonts.googleapis.com%2Fcss%3Ffamily%3DGloria%2BHallelujah;fontSize=16;fontColor=default;labelBackgroundColor=default;" vertex="1" parent="1">
          <mxGeometry x="290" y="370" width="190" height="30" as="geometry" />
        </mxCell>
        <mxCell id="DkE2EI-Y3YgHdCdcs4yU-7" value="Cloud Regions (Close to Cloud DataCenters)" style="text;html=1;align=center;verticalAlign=middle;whiteSpace=wrap;rounded=0;fontFamily=Gloria Hallelujah;fontSource=https%3A%2F%2Ffonts.googleapis.com%2Fcss%3Ffamily%3DGloria%2BHallelujah;fontSize=16;fontColor=default;labelBackgroundColor=default;" vertex="1" parent="1">
          <mxGeometry x="230" y="410" width="360" height="30" as="geometry" />
        </mxCell>
        <mxCell id="DkE2EI-Y3YgHdCdcs4yU-40" style="edgeStyle=orthogonalEdgeStyle;curved=1;rounded=0;orthogonalLoop=1;jettySize=auto;html=1;exitX=0.5;exitY=1;exitDx=0;exitDy=0;entryX=0.25;entryY=0;entryDx=0;entryDy=0;dashed=1;strokeColor=#7F00FF;strokeWidth=2;align=center;verticalAlign=middle;fontFamily=Gloria Hallelujah;fontSource=https%3A%2F%2Ffonts.googleapis.com%2Fcss%3Ffamily%3DGloria%2BHallelujah;fontSize=16;fontColor=default;labelBackgroundColor=default;endArrow=classic;endFill=1;flowAnimation=1;" edge="1" parent="1" source="DkE2EI-Y3YgHdCdcs4yU-8" target="DkE2EI-Y3YgHdCdcs4yU-11">
          <mxGeometry relative="1" as="geometry" />
        </mxCell>
        <mxCell id="DkE2EI-Y3YgHdCdcs4yU-8" value="BFF for&lt;div&gt;Web&lt;/div&gt;" style="rounded=1;whiteSpace=wrap;html=1;sketch=1;jiggle=2;curveFitting=1;strokeColor=#d6b656;align=center;verticalAlign=middle;fontFamily=Gloria Hallelujah;fontSource=https%3A%2F%2Ffonts.googleapis.com%2Fcss%3Ffamily%3DGloria%2BHallelujah;fontSize=16;labelBackgroundColor=none;fillColor=#fff2cc;gradientColor=#ffd966;" vertex="1" parent="1">
          <mxGeometry x="-20" y="690" width="120" height="60" as="geometry" />
        </mxCell>
        <mxCell id="DkE2EI-Y3YgHdCdcs4yU-41" style="edgeStyle=orthogonalEdgeStyle;curved=1;rounded=0;orthogonalLoop=1;jettySize=auto;html=1;exitX=0.5;exitY=1;exitDx=0;exitDy=0;entryX=0.5;entryY=0;entryDx=0;entryDy=0;dashed=1;strokeColor=#7F00FF;strokeWidth=2;align=center;verticalAlign=middle;fontFamily=Gloria Hallelujah;fontSource=https%3A%2F%2Ffonts.googleapis.com%2Fcss%3Ffamily%3DGloria%2BHallelujah;fontSize=16;fontColor=default;labelBackgroundColor=default;endArrow=classic;endFill=1;flowAnimation=1;" edge="1" parent="1" source="DkE2EI-Y3YgHdCdcs4yU-9" target="DkE2EI-Y3YgHdCdcs4yU-11">
          <mxGeometry relative="1" as="geometry" />
        </mxCell>
        <mxCell id="DkE2EI-Y3YgHdCdcs4yU-9" value="BFF for&lt;div&gt;Mobile&lt;/div&gt;" style="rounded=1;whiteSpace=wrap;html=1;sketch=1;jiggle=2;curveFitting=1;strokeColor=#d6b656;align=center;verticalAlign=middle;fontFamily=Gloria Hallelujah;fontSource=https%3A%2F%2Ffonts.googleapis.com%2Fcss%3Ffamily%3DGloria%2BHallelujah;fontSize=16;labelBackgroundColor=none;fillColor=#fff2cc;gradientColor=#ffd966;" vertex="1" parent="1">
          <mxGeometry x="120" y="690" width="120" height="60" as="geometry" />
        </mxCell>
        <mxCell id="DkE2EI-Y3YgHdCdcs4yU-42" style="edgeStyle=orthogonalEdgeStyle;curved=1;rounded=0;orthogonalLoop=1;jettySize=auto;html=1;entryX=0.75;entryY=0;entryDx=0;entryDy=0;dashed=1;strokeColor=#7F00FF;strokeWidth=2;align=center;verticalAlign=middle;fontFamily=Gloria Hallelujah;fontSource=https%3A%2F%2Ffonts.googleapis.com%2Fcss%3Ffamily%3DGloria%2BHallelujah;fontSize=16;fontColor=default;labelBackgroundColor=default;endArrow=classic;endFill=1;flowAnimation=1;" edge="1" parent="1" source="DkE2EI-Y3YgHdCdcs4yU-10" target="DkE2EI-Y3YgHdCdcs4yU-11">
          <mxGeometry relative="1" as="geometry" />
        </mxCell>
        <mxCell id="DkE2EI-Y3YgHdCdcs4yU-10" value="BFF for&lt;div&gt;Desktop&lt;/div&gt;" style="rounded=1;whiteSpace=wrap;html=1;sketch=1;jiggle=2;curveFitting=1;strokeColor=#d6b656;align=center;verticalAlign=middle;fontFamily=Gloria Hallelujah;fontSource=https%3A%2F%2Ffonts.googleapis.com%2Fcss%3Ffamily%3DGloria%2BHallelujah;fontSize=16;labelBackgroundColor=none;fillColor=#fff2cc;gradientColor=#ffd966;" vertex="1" parent="1">
          <mxGeometry x="260" y="690" width="120" height="60" as="geometry" />
        </mxCell>
        <mxCell id="DkE2EI-Y3YgHdCdcs4yU-43" style="edgeStyle=orthogonalEdgeStyle;curved=1;rounded=0;orthogonalLoop=1;jettySize=auto;html=1;exitX=0.25;exitY=1;exitDx=0;exitDy=0;dashed=1;strokeColor=#FF00FF;strokeWidth=2;align=center;verticalAlign=middle;fontFamily=Gloria Hallelujah;fontSource=https%3A%2F%2Ffonts.googleapis.com%2Fcss%3Ffamily%3DGloria%2BHallelujah;fontSize=16;fontColor=default;labelBackgroundColor=default;endArrow=classic;endFill=1;flowAnimation=1;" edge="1" parent="1" source="DkE2EI-Y3YgHdCdcs4yU-11" target="DkE2EI-Y3YgHdCdcs4yU-16">
          <mxGeometry relative="1" as="geometry" />
        </mxCell>
        <mxCell id="DkE2EI-Y3YgHdCdcs4yU-44" style="edgeStyle=orthogonalEdgeStyle;curved=1;rounded=0;orthogonalLoop=1;jettySize=auto;html=1;exitX=0.5;exitY=1;exitDx=0;exitDy=0;entryX=0.5;entryY=0;entryDx=0;entryDy=0;dashed=1;strokeColor=#FF00FF;strokeWidth=2;align=center;verticalAlign=middle;fontFamily=Gloria Hallelujah;fontSource=https%3A%2F%2Ffonts.googleapis.com%2Fcss%3Ffamily%3DGloria%2BHallelujah;fontSize=16;fontColor=default;labelBackgroundColor=default;endArrow=classic;endFill=1;flowAnimation=1;" edge="1" parent="1" source="DkE2EI-Y3YgHdCdcs4yU-11" target="DkE2EI-Y3YgHdCdcs4yU-17">
          <mxGeometry relative="1" as="geometry" />
        </mxCell>
        <mxCell id="DkE2EI-Y3YgHdCdcs4yU-45" style="edgeStyle=orthogonalEdgeStyle;curved=1;rounded=0;orthogonalLoop=1;jettySize=auto;html=1;exitX=0.75;exitY=1;exitDx=0;exitDy=0;entryX=0.5;entryY=0;entryDx=0;entryDy=0;dashed=1;strokeColor=#FF00FF;strokeWidth=2;align=center;verticalAlign=middle;fontFamily=Gloria Hallelujah;fontSource=https%3A%2F%2Ffonts.googleapis.com%2Fcss%3Ffamily%3DGloria%2BHallelujah;fontSize=16;fontColor=default;labelBackgroundColor=default;endArrow=classic;endFill=1;flowAnimation=1;" edge="1" parent="1" source="DkE2EI-Y3YgHdCdcs4yU-11" target="DkE2EI-Y3YgHdCdcs4yU-18">
          <mxGeometry relative="1" as="geometry" />
        </mxCell>
        <mxCell id="DkE2EI-Y3YgHdCdcs4yU-58" style="edgeStyle=orthogonalEdgeStyle;curved=1;rounded=0;orthogonalLoop=1;jettySize=auto;html=1;dashed=1;strokeColor=#FF00FF;strokeWidth=2;align=center;verticalAlign=middle;fontFamily=Gloria Hallelujah;fontSource=https%3A%2F%2Ffonts.googleapis.com%2Fcss%3Ffamily%3DGloria%2BHallelujah;fontSize=16;fontColor=default;labelBackgroundColor=default;endArrow=classic;endFill=1;flowAnimation=1;" edge="1" parent="1" source="DkE2EI-Y3YgHdCdcs4yU-11" target="DkE2EI-Y3YgHdCdcs4yU-57">
          <mxGeometry relative="1" as="geometry" />
        </mxCell>
        <mxCell id="DkE2EI-Y3YgHdCdcs4yU-11" value="&lt;div&gt;&lt;span style=&quot;background-color: initial;&quot;&gt;Internal&lt;/span&gt;&lt;/div&gt;&lt;div&gt;&lt;span style=&quot;background-color: initial;&quot;&gt;API&lt;/span&gt;&lt;br&gt;&lt;/div&gt;&lt;div&gt;Gateway&lt;/div&gt;" style="rounded=0;whiteSpace=wrap;html=1;sketch=1;curveFitting=1;jiggle=2;fontFamily=Gloria Hallelujah;fontSource=https%3A%2F%2Ffonts.googleapis.com%2Fcss%3Ffamily%3DGloria%2BHallelujah;fontSize=16;fillColor=#dae8fc;strokeColor=#6c8ebf;" vertex="1" parent="1">
          <mxGeometry x="100" y="820" width="160" height="90" as="geometry" />
        </mxCell>
        <mxCell id="DkE2EI-Y3YgHdCdcs4yU-51" style="edgeStyle=orthogonalEdgeStyle;curved=1;rounded=0;orthogonalLoop=1;jettySize=auto;html=1;exitX=0.5;exitY=1;exitDx=0;exitDy=0;dashed=1;strokeColor=#FF00FF;strokeWidth=2;align=center;verticalAlign=middle;fontFamily=Gloria Hallelujah;fontSource=https%3A%2F%2Ffonts.googleapis.com%2Fcss%3Ffamily%3DGloria%2BHallelujah;fontSize=16;fontColor=default;labelBackgroundColor=default;endArrow=classic;endFill=1;flowAnimation=1;" edge="1" parent="1" source="DkE2EI-Y3YgHdCdcs4yU-12" target="DkE2EI-Y3YgHdCdcs4yU-20">
          <mxGeometry relative="1" as="geometry" />
        </mxCell>
        <mxCell id="DkE2EI-Y3YgHdCdcs4yU-12" value="&lt;div&gt;Internal&lt;/div&gt;API&lt;div&gt;Gateway&lt;/div&gt;" style="rounded=0;whiteSpace=wrap;html=1;sketch=1;curveFitting=1;jiggle=2;fontFamily=Gloria Hallelujah;fontSource=https%3A%2F%2Ffonts.googleapis.com%2Fcss%3Ffamily%3DGloria%2BHallelujah;fontSize=16;fillColor=#dae8fc;strokeColor=#6c8ebf;" vertex="1" parent="1">
          <mxGeometry x="570" y="820" width="160" height="90" as="geometry" />
        </mxCell>
        <mxCell id="DkE2EI-Y3YgHdCdcs4yU-13" value="BFF for&lt;div&gt;Web&lt;/div&gt;" style="rounded=1;whiteSpace=wrap;html=1;sketch=1;jiggle=2;curveFitting=1;strokeColor=#d6b656;align=center;verticalAlign=middle;fontFamily=Gloria Hallelujah;fontSource=https%3A%2F%2Ffonts.googleapis.com%2Fcss%3Ffamily%3DGloria%2BHallelujah;fontSize=16;labelBackgroundColor=none;fillColor=#fff2cc;gradientColor=#ffd966;" vertex="1" parent="1">
          <mxGeometry x="560" y="660" width="120" height="60" as="geometry" />
        </mxCell>
        <mxCell id="DkE2EI-Y3YgHdCdcs4yU-14" value="BFF for&lt;div&gt;Mobile&lt;/div&gt;" style="rounded=1;whiteSpace=wrap;html=1;sketch=1;jiggle=2;curveFitting=1;strokeColor=#d6b656;align=center;verticalAlign=middle;fontFamily=Gloria Hallelujah;fontSource=https%3A%2F%2Ffonts.googleapis.com%2Fcss%3Ffamily%3DGloria%2BHallelujah;fontSize=16;labelBackgroundColor=none;fillColor=#fff2cc;gradientColor=#ffd966;" vertex="1" parent="1">
          <mxGeometry x="590" y="690" width="120" height="60" as="geometry" />
        </mxCell>
        <mxCell id="DkE2EI-Y3YgHdCdcs4yU-39" style="edgeStyle=orthogonalEdgeStyle;curved=1;rounded=0;orthogonalLoop=1;jettySize=auto;html=1;exitX=0.25;exitY=1;exitDx=0;exitDy=0;entryX=0.5;entryY=0;entryDx=0;entryDy=0;dashed=1;strokeColor=#7F00FF;strokeWidth=2;align=center;verticalAlign=middle;fontFamily=Gloria Hallelujah;fontSource=https%3A%2F%2Ffonts.googleapis.com%2Fcss%3Ffamily%3DGloria%2BHallelujah;fontSize=16;fontColor=default;labelBackgroundColor=default;endArrow=classic;endFill=1;flowAnimation=1;" edge="1" parent="1" source="DkE2EI-Y3YgHdCdcs4yU-15" target="DkE2EI-Y3YgHdCdcs4yU-12">
          <mxGeometry relative="1" as="geometry" />
        </mxCell>
        <mxCell id="DkE2EI-Y3YgHdCdcs4yU-15" value="BFF for&lt;div&gt;Desktop&lt;/div&gt;" style="rounded=1;whiteSpace=wrap;html=1;sketch=1;jiggle=2;curveFitting=1;strokeColor=#d6b656;align=center;verticalAlign=middle;fontFamily=Gloria Hallelujah;fontSource=https%3A%2F%2Ffonts.googleapis.com%2Fcss%3Ffamily%3DGloria%2BHallelujah;fontSize=16;labelBackgroundColor=none;fillColor=#fff2cc;gradientColor=#ffd966;" vertex="1" parent="1">
          <mxGeometry x="620" y="720" width="120" height="60" as="geometry" />
        </mxCell>
        <mxCell id="DkE2EI-Y3YgHdCdcs4yU-46" style="edgeStyle=orthogonalEdgeStyle;curved=1;rounded=0;orthogonalLoop=1;jettySize=auto;html=1;exitX=0.5;exitY=1;exitDx=0;exitDy=0;entryX=0.25;entryY=0;entryDx=0;entryDy=0;dashed=1;strokeColor=#FF00FF;strokeWidth=2;align=center;verticalAlign=middle;fontFamily=Gloria Hallelujah;fontSource=https%3A%2F%2Ffonts.googleapis.com%2Fcss%3Ffamily%3DGloria%2BHallelujah;fontSize=16;fontColor=default;labelBackgroundColor=default;endArrow=classic;endFill=1;flowAnimation=1;" edge="1" parent="1" source="DkE2EI-Y3YgHdCdcs4yU-16" target="DkE2EI-Y3YgHdCdcs4yU-23">
          <mxGeometry relative="1" as="geometry" />
        </mxCell>
        <mxCell id="DkE2EI-Y3YgHdCdcs4yU-16" value="Backend API&lt;div&gt;For Payment&lt;/div&gt;" style="rounded=1;whiteSpace=wrap;html=1;sketch=1;jiggle=2;curveFitting=1;strokeColor=#d79b00;align=center;verticalAlign=middle;fontFamily=Gloria Hallelujah;fontSource=https%3A%2F%2Ffonts.googleapis.com%2Fcss%3Ffamily%3DGloria%2BHallelujah;fontSize=16;labelBackgroundColor=none;fillColor=#ffcd28;gradientColor=#ffa500;" vertex="1" parent="1">
          <mxGeometry x="-20" y="970" width="120" height="60" as="geometry" />
        </mxCell>
        <mxCell id="DkE2EI-Y3YgHdCdcs4yU-47" style="edgeStyle=orthogonalEdgeStyle;curved=1;rounded=0;orthogonalLoop=1;jettySize=auto;html=1;exitX=0.5;exitY=1;exitDx=0;exitDy=0;entryX=0.5;entryY=0;entryDx=0;entryDy=0;dashed=1;strokeColor=#FF00FF;strokeWidth=2;align=center;verticalAlign=middle;fontFamily=Gloria Hallelujah;fontSource=https%3A%2F%2Ffonts.googleapis.com%2Fcss%3Ffamily%3DGloria%2BHallelujah;fontSize=16;fontColor=default;labelBackgroundColor=default;endArrow=classic;endFill=1;flowAnimation=1;" edge="1" parent="1" source="DkE2EI-Y3YgHdCdcs4yU-17" target="DkE2EI-Y3YgHdCdcs4yU-23">
          <mxGeometry relative="1" as="geometry" />
        </mxCell>
        <mxCell id="DkE2EI-Y3YgHdCdcs4yU-17" value="Backend API&lt;div&gt;For Content&lt;/div&gt;" style="rounded=1;whiteSpace=wrap;html=1;sketch=1;jiggle=2;curveFitting=1;strokeColor=#d79b00;align=center;verticalAlign=middle;fontFamily=Gloria Hallelujah;fontSource=https%3A%2F%2Ffonts.googleapis.com%2Fcss%3Ffamily%3DGloria%2BHallelujah;fontSize=16;labelBackgroundColor=none;fillColor=#ffcd28;gradientColor=#ffa500;" vertex="1" parent="1">
          <mxGeometry x="120" y="970" width="120" height="60" as="geometry" />
        </mxCell>
        <mxCell id="DkE2EI-Y3YgHdCdcs4yU-18" value="Backend API&lt;div&gt;For User&lt;/div&gt;&lt;div&gt;Management&lt;/div&gt;" style="rounded=1;whiteSpace=wrap;html=1;sketch=1;jiggle=2;curveFitting=1;strokeColor=#d79b00;align=center;verticalAlign=middle;fontFamily=Gloria Hallelujah;fontSource=https%3A%2F%2Ffonts.googleapis.com%2Fcss%3Ffamily%3DGloria%2BHallelujah;fontSize=16;labelBackgroundColor=none;fillColor=#ffcd28;gradientColor=#ffa500;" vertex="1" parent="1">
          <mxGeometry x="260" y="970" width="120" height="60" as="geometry" />
        </mxCell>
        <mxCell id="DkE2EI-Y3YgHdCdcs4yU-52" style="edgeStyle=orthogonalEdgeStyle;curved=1;rounded=0;orthogonalLoop=1;jettySize=auto;html=1;exitX=0.5;exitY=1;exitDx=0;exitDy=0;dashed=1;strokeColor=#FF00FF;strokeWidth=2;align=center;verticalAlign=middle;fontFamily=Gloria Hallelujah;fontSource=https%3A%2F%2Ffonts.googleapis.com%2Fcss%3Ffamily%3DGloria%2BHallelujah;fontSize=16;fontColor=default;labelBackgroundColor=default;endArrow=classic;endFill=1;flowAnimation=1;" edge="1" parent="1" source="DkE2EI-Y3YgHdCdcs4yU-20" target="DkE2EI-Y3YgHdCdcs4yU-26">
          <mxGeometry relative="1" as="geometry" />
        </mxCell>
        <mxCell id="DkE2EI-Y3YgHdCdcs4yU-20" value="Backend APIs" style="rounded=1;whiteSpace=wrap;html=1;sketch=1;jiggle=2;curveFitting=1;strokeColor=#d79b00;align=center;verticalAlign=middle;fontFamily=Gloria Hallelujah;fontSource=https%3A%2F%2Ffonts.googleapis.com%2Fcss%3Ffamily%3DGloria%2BHallelujah;fontSize=16;labelBackgroundColor=none;fillColor=#ffcd28;gradientColor=#ffa500;" vertex="1" parent="1">
          <mxGeometry x="590" y="970" width="120" height="60" as="geometry" />
        </mxCell>
        <mxCell id="DkE2EI-Y3YgHdCdcs4yU-32" style="edgeStyle=orthogonalEdgeStyle;curved=1;rounded=0;orthogonalLoop=1;jettySize=auto;html=1;exitX=0;exitY=0.75;exitDx=0;exitDy=0;dashed=1;strokeColor=#FF8000;strokeWidth=2;align=center;verticalAlign=middle;fontFamily=Gloria Hallelujah;fontSource=https%3A%2F%2Ffonts.googleapis.com%2Fcss%3Ffamily%3DGloria%2BHallelujah;fontSize=16;fontColor=default;labelBackgroundColor=default;endArrow=classic;endFill=1;flowAnimation=1;" edge="1" parent="1" source="DkE2EI-Y3YgHdCdcs4yU-21" target="DkE2EI-Y3YgHdCdcs4yU-1">
          <mxGeometry relative="1" as="geometry" />
        </mxCell>
        <mxCell id="DkE2EI-Y3YgHdCdcs4yU-21" value="DNS" style="rounded=0;whiteSpace=wrap;html=1;sketch=1;curveFitting=1;jiggle=2;fontFamily=Gloria Hallelujah;fontSource=https%3A%2F%2Ffonts.googleapis.com%2Fcss%3Ffamily%3DGloria%2BHallelujah;fontSize=16;fillColor=#f5f5f5;strokeColor=#666666;fontColor=#333333;" vertex="1" parent="1">
          <mxGeometry x="575.71" y="200" width="68.57" height="40" as="geometry" />
        </mxCell>
        <mxCell id="DkE2EI-Y3YgHdCdcs4yU-22" value="Cloud&lt;div&gt;Storages&lt;/div&gt;" style="shape=cylinder3;whiteSpace=wrap;html=1;boundedLbl=1;backgroundOutline=1;size=15;rounded=0;sketch=1;jiggle=2;curveFitting=1;strokeColor=#9673a6;align=center;verticalAlign=middle;fontFamily=Gloria Hallelujah;fontSource=https%3A%2F%2Ffonts.googleapis.com%2Fcss%3Ffamily%3DGloria%2BHallelujah;fontSize=16;labelBackgroundColor=none;fillColor=#e1d5e7;" vertex="1" parent="1">
          <mxGeometry x="10" y="1200" width="100" height="80" as="geometry" />
        </mxCell>
        <mxCell id="DkE2EI-Y3YgHdCdcs4yU-49" style="edgeStyle=orthogonalEdgeStyle;curved=1;rounded=0;orthogonalLoop=1;jettySize=auto;html=1;dashed=1;strokeColor=#FF00FF;strokeWidth=2;align=center;verticalAlign=middle;fontFamily=Gloria Hallelujah;fontSource=https%3A%2F%2Ffonts.googleapis.com%2Fcss%3Ffamily%3DGloria%2BHallelujah;fontSize=16;fontColor=default;labelBackgroundColor=default;endArrow=classic;endFill=1;flowAnimation=1;exitX=0;exitY=0.5;exitDx=0;exitDy=0;" edge="1" parent="1" source="DkE2EI-Y3YgHdCdcs4yU-23" target="DkE2EI-Y3YgHdCdcs4yU-22">
          <mxGeometry relative="1" as="geometry" />
        </mxCell>
        <mxCell id="DkE2EI-Y3YgHdCdcs4yU-23" value="Web &amp;amp; API&lt;div&gt;Applications&lt;/div&gt;" style="shape=document;whiteSpace=wrap;html=1;boundedLbl=1;rounded=0;sketch=1;jiggle=2;curveFitting=1;strokeColor=#d6b656;align=center;verticalAlign=middle;fontFamily=Gloria Hallelujah;fontSource=https%3A%2F%2Ffonts.googleapis.com%2Fcss%3Ffamily%3DGloria%2BHallelujah;fontSize=16;labelBackgroundColor=none;fillColor=#fff2cc;" vertex="1" parent="1">
          <mxGeometry x="120" y="1080" width="120" height="80" as="geometry" />
        </mxCell>
        <mxCell id="DkE2EI-Y3YgHdCdcs4yU-25" value="DataBases" style="shape=cylinder3;whiteSpace=wrap;html=1;boundedLbl=1;backgroundOutline=1;size=15;rounded=0;sketch=1;jiggle=2;curveFitting=1;strokeColor=#9673a6;align=center;verticalAlign=middle;fontFamily=Gloria Hallelujah;fontSource=https%3A%2F%2Ffonts.googleapis.com%2Fcss%3Ffamily%3DGloria%2BHallelujah;fontSize=16;labelBackgroundColor=none;fillColor=#e1d5e7;" vertex="1" parent="1">
          <mxGeometry x="260" y="1200" width="100" height="80" as="geometry" />
        </mxCell>
        <mxCell id="DkE2EI-Y3YgHdCdcs4yU-53" style="edgeStyle=orthogonalEdgeStyle;curved=1;rounded=0;orthogonalLoop=1;jettySize=auto;html=1;dashed=1;strokeColor=#FF00FF;strokeWidth=2;align=center;verticalAlign=middle;fontFamily=Gloria Hallelujah;fontSource=https%3A%2F%2Ffonts.googleapis.com%2Fcss%3Ffamily%3DGloria%2BHallelujah;fontSize=16;fontColor=default;labelBackgroundColor=default;endArrow=classic;endFill=1;flowAnimation=1;" edge="1" parent="1" source="DkE2EI-Y3YgHdCdcs4yU-26" target="DkE2EI-Y3YgHdCdcs4yU-27">
          <mxGeometry relative="1" as="geometry" />
        </mxCell>
        <mxCell id="DkE2EI-Y3YgHdCdcs4yU-26" value="Web &amp;amp; API&lt;div&gt;Applications&lt;/div&gt;" style="shape=document;whiteSpace=wrap;html=1;boundedLbl=1;rounded=0;sketch=1;jiggle=2;curveFitting=1;strokeColor=#d6b656;align=center;verticalAlign=middle;fontFamily=Gloria Hallelujah;fontSource=https%3A%2F%2Ffonts.googleapis.com%2Fcss%3Ffamily%3DGloria%2BHallelujah;fontSize=16;labelBackgroundColor=none;fillColor=#fff2cc;" vertex="1" parent="1">
          <mxGeometry x="590" y="1080" width="120" height="80" as="geometry" />
        </mxCell>
        <mxCell id="DkE2EI-Y3YgHdCdcs4yU-27" value="Storages" style="shape=cylinder3;whiteSpace=wrap;html=1;boundedLbl=1;backgroundOutline=1;size=15;rounded=0;sketch=1;jiggle=2;curveFitting=1;strokeColor=#9673a6;align=center;verticalAlign=middle;fontFamily=Gloria Hallelujah;fontSource=https%3A%2F%2Ffonts.googleapis.com%2Fcss%3Ffamily%3DGloria%2BHallelujah;fontSize=16;labelBackgroundColor=none;fillColor=#e1d5e7;" vertex="1" parent="1">
          <mxGeometry x="600" y="1200" width="100" height="80" as="geometry" />
        </mxCell>
        <mxCell id="DkE2EI-Y3YgHdCdcs4yU-29" style="edgeStyle=orthogonalEdgeStyle;rounded=0;orthogonalLoop=1;jettySize=auto;html=1;entryX=0;entryY=0.5;entryDx=0;entryDy=0;dashed=1;strokeColor=#FF8000;strokeWidth=2;align=center;verticalAlign=middle;fontFamily=Gloria Hallelujah;fontSource=https%3A%2F%2Ffonts.googleapis.com%2Fcss%3Ffamily%3DGloria%2BHallelujah;fontSize=16;fontColor=default;labelBackgroundColor=default;endArrow=classic;flowAnimation=1;endFill=1;curved=1;" edge="1" parent="1" source="DkE2EI-Y3YgHdCdcs4yU-28" target="DkE2EI-Y3YgHdCdcs4yU-21">
          <mxGeometry relative="1" as="geometry" />
        </mxCell>
        <mxCell id="DkE2EI-Y3YgHdCdcs4yU-28" value="API Consumers" style="shape=umlActor;verticalLabelPosition=bottom;verticalAlign=top;html=1;outlineConnect=0;rounded=0;sketch=1;jiggle=2;curveFitting=1;strokeColor=default;align=center;fontFamily=Gloria Hallelujah;fontSource=https%3A%2F%2Ffonts.googleapis.com%2Fcss%3Ffamily%3DGloria%2BHallelujah;fontSize=16;fontColor=default;labelBackgroundColor=default;fillColor=default;" vertex="1" parent="1">
          <mxGeometry x="230" y="190" width="30" height="60" as="geometry" />
        </mxCell>
        <mxCell id="DkE2EI-Y3YgHdCdcs4yU-48" style="edgeStyle=orthogonalEdgeStyle;curved=1;rounded=0;orthogonalLoop=1;jettySize=auto;html=1;entryX=0.808;entryY=0.006;entryDx=0;entryDy=0;entryPerimeter=0;dashed=1;strokeColor=#FF00FF;strokeWidth=2;align=center;verticalAlign=middle;fontFamily=Gloria Hallelujah;fontSource=https%3A%2F%2Ffonts.googleapis.com%2Fcss%3Ffamily%3DGloria%2BHallelujah;fontSize=16;fontColor=default;labelBackgroundColor=default;endArrow=classic;endFill=1;flowAnimation=1;exitX=0.5;exitY=1;exitDx=0;exitDy=0;" edge="1" parent="1" source="DkE2EI-Y3YgHdCdcs4yU-18" target="DkE2EI-Y3YgHdCdcs4yU-23">
          <mxGeometry relative="1" as="geometry" />
        </mxCell>
        <mxCell id="DkE2EI-Y3YgHdCdcs4yU-50" style="edgeStyle=orthogonalEdgeStyle;curved=1;rounded=0;orthogonalLoop=1;jettySize=auto;html=1;exitX=1;exitY=0.5;exitDx=0;exitDy=0;entryX=0.5;entryY=0;entryDx=0;entryDy=0;entryPerimeter=0;dashed=1;strokeColor=#FF00FF;strokeWidth=2;align=center;verticalAlign=middle;fontFamily=Gloria Hallelujah;fontSource=https%3A%2F%2Ffonts.googleapis.com%2Fcss%3Ffamily%3DGloria%2BHallelujah;fontSize=16;fontColor=default;labelBackgroundColor=default;endArrow=classic;endFill=1;flowAnimation=1;" edge="1" parent="1" source="DkE2EI-Y3YgHdCdcs4yU-23" target="DkE2EI-Y3YgHdCdcs4yU-25">
          <mxGeometry relative="1" as="geometry" />
        </mxCell>
        <mxCell id="DkE2EI-Y3YgHdCdcs4yU-57" value="Cloud Native Services APIs" style="rounded=1;whiteSpace=wrap;html=1;sketch=1;jiggle=2;curveFitting=1;strokeColor=#82b366;align=center;verticalAlign=middle;fontFamily=Gloria Hallelujah;fontSource=https%3A%2F%2Ffonts.googleapis.com%2Fcss%3Ffamily%3DGloria%2BHallelujah;fontSize=16;labelBackgroundColor=none;fillColor=#d5e8d4;" vertex="1" parent="1">
          <mxGeometry x="310" y="835" width="120" height="60" as="geometry" />
        </mxCell>
        <mxCell id="DkE2EI-Y3YgHdCdcs4yU-59" value="Structured&lt;div style=&quot;font-size: 12px;&quot;&gt;Data&lt;/div&gt;" style="text;html=1;align=center;verticalAlign=middle;whiteSpace=wrap;rounded=0;fontFamily=Gloria Hallelujah;fontSource=https%3A%2F%2Ffonts.googleapis.com%2Fcss%3Ffamily%3DGloria%2BHallelujah;fontSize=12;fontColor=default;labelBackgroundColor=default;sketch=1;curveFitting=1;jiggle=2;" vertex="1" parent="1">
          <mxGeometry x="370" y="1160" width="60" height="30" as="geometry" />
        </mxCell>
        <mxCell id="DkE2EI-Y3YgHdCdcs4yU-61" style="edgeStyle=orthogonalEdgeStyle;curved=1;rounded=0;orthogonalLoop=1;jettySize=auto;html=1;entryX=1;entryY=0.5;entryDx=0;entryDy=0;entryPerimeter=0;strokeColor=#666666;strokeWidth=1;align=center;verticalAlign=middle;fontFamily=Gloria Hallelujah;fontSource=https%3A%2F%2Ffonts.googleapis.com%2Fcss%3Ffamily%3DGloria%2BHallelujah;fontSize=16;fontColor=default;labelBackgroundColor=default;endArrow=classic;endFill=1;flowAnimation=0;exitX=0.5;exitY=1;exitDx=0;exitDy=0;sketch=1;curveFitting=1;jiggle=2;" edge="1" parent="1" source="DkE2EI-Y3YgHdCdcs4yU-59" target="DkE2EI-Y3YgHdCdcs4yU-25">
          <mxGeometry relative="1" as="geometry" />
        </mxCell>
        <mxCell id="DkE2EI-Y3YgHdCdcs4yU-63" value="" style="endArrow=none;dashed=1;html=1;rounded=0;fontFamily=Gloria Hallelujah;fontSource=https%3A%2F%2Ffonts.googleapis.com%2Fcss%3Ffamily%3DGloria%2BHallelujah;fontSize=16;fontColor=default;strokeWidth=2;sketch=1;curveFitting=1;jiggle=2;" edge="1" parent="1">
          <mxGeometry width="50" height="50" relative="1" as="geometry">
            <mxPoint x="-60" y="410" as="sourcePoint" />
            <mxPoint x="780" y="410" as="targetPoint" />
          </mxGeometry>
        </mxCell>
        <mxCell id="DkE2EI-Y3YgHdCdcs4yU-64" value="" style="endArrow=none;dashed=1;html=1;rounded=0;fontFamily=Gloria Hallelujah;fontSource=https%3A%2F%2Ffonts.googleapis.com%2Fcss%3Ffamily%3DGloria%2BHallelujah;fontSize=16;fontColor=default;strokeWidth=2;dashPattern=1 2;strokeColor=#CCCCCC;" edge="1" parent="1">
          <mxGeometry width="50" height="50" relative="1" as="geometry">
            <mxPoint x="490" y="790" as="sourcePoint" />
            <mxPoint x="770" y="790" as="targetPoint" />
          </mxGeometry>
        </mxCell>
        <mxCell id="DkE2EI-Y3YgHdCdcs4yU-65" value="Public Facing" style="text;html=1;align=center;verticalAlign=middle;whiteSpace=wrap;rounded=0;fontFamily=Gloria Hallelujah;fontSource=https%3A%2F%2Ffonts.googleapis.com%2Fcss%3Ffamily%3DGloria%2BHallelujah;fontSize=16;fontColor=default;labelBackgroundColor=default;" vertex="1" parent="1">
          <mxGeometry x="340" y="760" width="130" height="30" as="geometry" />
        </mxCell>
        <mxCell id="DkE2EI-Y3YgHdCdcs4yU-66" value="Private Zone" style="text;html=1;align=center;verticalAlign=middle;whiteSpace=wrap;rounded=0;fontFamily=Gloria Hallelujah;fontSource=https%3A%2F%2Ffonts.googleapis.com%2Fcss%3Ffamily%3DGloria%2BHallelujah;fontSize=16;fontColor=default;labelBackgroundColor=default;" vertex="1" parent="1">
          <mxGeometry x="340" y="790" width="130" height="30" as="geometry" />
        </mxCell>
        <mxCell id="DkE2EI-Y3YgHdCdcs4yU-67" value="Unstructured&lt;div style=&quot;font-size: 12px;&quot;&gt;Data&lt;/div&gt;" style="text;html=1;align=center;verticalAlign=middle;whiteSpace=wrap;rounded=0;fontFamily=Gloria Hallelujah;fontSource=https%3A%2F%2Ffonts.googleapis.com%2Fcss%3Ffamily%3DGloria%2BHallelujah;fontSize=12;fontColor=default;labelBackgroundColor=default;sketch=1;curveFitting=1;jiggle=2;" vertex="1" parent="1">
          <mxGeometry x="-40" y="1130" width="60" height="30" as="geometry" />
        </mxCell>
        <mxCell id="DkE2EI-Y3YgHdCdcs4yU-68" style="edgeStyle=orthogonalEdgeStyle;curved=1;rounded=0;sketch=1;jiggle=2;curveFitting=1;orthogonalLoop=1;jettySize=auto;html=1;entryX=0.145;entryY=0;entryDx=0;entryDy=4.35;entryPerimeter=0;strokeColor=#666666;strokeWidth=1;align=center;verticalAlign=middle;fontFamily=Gloria Hallelujah;fontSource=https%3A%2F%2Ffonts.googleapis.com%2Fcss%3Ffamily%3DGloria%2BHallelujah;fontSize=16;fontColor=default;labelBackgroundColor=default;endArrow=classic;endFill=1;flowAnimation=0;" edge="1" parent="1" source="DkE2EI-Y3YgHdCdcs4yU-67" target="DkE2EI-Y3YgHdCdcs4yU-22">
          <mxGeometry relative="1" as="geometry" />
        </mxCell>
        <mxCell id="DkE2EI-Y3YgHdCdcs4yU-69" value="Data Replication" style="edgeStyle=orthogonalEdgeStyle;curved=1;rounded=0;orthogonalLoop=1;jettySize=auto;html=1;exitX=1;exitY=0;exitDx=0;exitDy=52.5;exitPerimeter=0;entryX=0;entryY=0;entryDx=0;entryDy=52.5;entryPerimeter=0;strokeColor=#666666;strokeWidth=2;align=center;verticalAlign=middle;fontFamily=Gloria Hallelujah;fontSource=https%3A%2F%2Ffonts.googleapis.com%2Fcss%3Ffamily%3DGloria%2BHallelujah;fontSize=16;fontColor=default;labelBackgroundColor=default;endArrow=classic;endFill=1;flowAnimation=1;dashed=1;dashPattern=1 2;" edge="1" parent="1" source="DkE2EI-Y3YgHdCdcs4yU-25" target="DkE2EI-Y3YgHdCdcs4yU-27">
          <mxGeometry relative="1" as="geometry" />
        </mxCell>
        <mxCell id="DkE2EI-Y3YgHdCdcs4yU-70" value="Backend For Frontend APIs" style="text;html=1;align=center;verticalAlign=middle;whiteSpace=wrap;rounded=0;fontFamily=Gloria Hallelujah;fontSource=https%3A%2F%2Ffonts.googleapis.com%2Fcss%3Ffamily%3DGloria%2BHallelujah;fontSize=12;fontColor=default;labelBackgroundColor=default;sketch=1;curveFitting=1;jiggle=2;" vertex="1" parent="1">
          <mxGeometry x="330" y="610" width="110" height="40" as="geometry" />
        </mxCell>
        <mxCell id="DkE2EI-Y3YgHdCdcs4yU-71" style="edgeStyle=orthogonalEdgeStyle;curved=1;rounded=0;sketch=1;jiggle=2;curveFitting=1;orthogonalLoop=1;jettySize=auto;html=1;entryX=0.85;entryY=-0.025;entryDx=0;entryDy=0;entryPerimeter=0;strokeColor=#666666;strokeWidth=1;align=center;verticalAlign=middle;fontFamily=Gloria Hallelujah;fontSource=https%3A%2F%2Ffonts.googleapis.com%2Fcss%3Ffamily%3DGloria%2BHallelujah;fontSize=16;fontColor=default;labelBackgroundColor=default;endArrow=classic;endFill=1;flowAnimation=0;" edge="1" parent="1" source="DkE2EI-Y3YgHdCdcs4yU-70" target="DkE2EI-Y3YgHdCdcs4yU-10">
          <mxGeometry relative="1" as="geometry" />
        </mxCell>
        <mxCell id="DkE2EI-Y3YgHdCdcs4yU-74" style="edgeStyle=orthogonalEdgeStyle;curved=1;rounded=0;sketch=1;jiggle=2;curveFitting=1;orthogonalLoop=1;jettySize=auto;html=1;exitX=0;exitY=0.5;exitDx=0;exitDy=0;strokeColor=#666666;strokeWidth=1;align=center;verticalAlign=middle;fontFamily=Gloria Hallelujah;fontSource=https%3A%2F%2Ffonts.googleapis.com%2Fcss%3Ffamily%3DGloria%2BHallelujah;fontSize=16;fontColor=default;labelBackgroundColor=default;endArrow=classic;endFill=1;flowAnimation=0;" edge="1" parent="1" source="DkE2EI-Y3YgHdCdcs4yU-73">
          <mxGeometry relative="1" as="geometry">
            <mxPoint x="490" y="300" as="targetPoint" />
          </mxGeometry>
        </mxCell>
        <mxCell id="DkE2EI-Y3YgHdCdcs4yU-73" value="CDN WAF enforces @here" style="text;html=1;align=center;verticalAlign=middle;whiteSpace=wrap;rounded=0;fontFamily=Gloria Hallelujah;fontSource=https%3A%2F%2Ffonts.googleapis.com%2Fcss%3Ffamily%3DGloria%2BHallelujah;fontSize=12;fontColor=default;labelBackgroundColor=default;sketch=1;curveFitting=1;jiggle=2;" vertex="1" parent="1">
          <mxGeometry x="534.28" y="260" width="110" height="40" as="geometry" />
        </mxCell>
        <mxCell id="DkE2EI-Y3YgHdCdcs4yU-77" value="&lt;ul&gt;&lt;li&gt;Caching&lt;/li&gt;&lt;li&gt;Quota&lt;/li&gt;&lt;li&gt;Subscription&lt;/li&gt;&lt;/ul&gt;" style="text;html=1;align=center;verticalAlign=middle;whiteSpace=wrap;rounded=0;fontFamily=Gloria Hallelujah;fontSource=https%3A%2F%2Ffonts.googleapis.com%2Fcss%3Ffamily%3DGloria%2BHallelujah;fontSize=12;fontColor=default;labelBackgroundColor=default;sketch=1;curveFitting=1;jiggle=2;" vertex="1" parent="1">
          <mxGeometry x="-60" y="530" width="110" height="40" as="geometry" />
        </mxCell>
        <mxCell id="DkE2EI-Y3YgHdCdcs4yU-78" style="edgeStyle=orthogonalEdgeStyle;curved=1;rounded=0;sketch=1;jiggle=2;curveFitting=1;orthogonalLoop=1;jettySize=auto;html=1;entryX=-0.025;entryY=0.678;entryDx=0;entryDy=0;entryPerimeter=0;strokeColor=#666666;strokeWidth=1;align=center;verticalAlign=middle;fontFamily=Gloria Hallelujah;fontSource=https%3A%2F%2Ffonts.googleapis.com%2Fcss%3Ffamily%3DGloria%2BHallelujah;fontSize=16;fontColor=default;labelBackgroundColor=default;endArrow=classic;endFill=1;flowAnimation=0;" edge="1" parent="1" source="DkE2EI-Y3YgHdCdcs4yU-77" target="DkE2EI-Y3YgHdCdcs4yU-2">
          <mxGeometry relative="1" as="geometry" />
        </mxCell>
        <mxCell id="DkE2EI-Y3YgHdCdcs4yU-81" style="edgeStyle=orthogonalEdgeStyle;curved=1;rounded=0;sketch=1;jiggle=2;curveFitting=1;orthogonalLoop=1;jettySize=auto;html=1;entryX=0;entryY=0.25;entryDx=0;entryDy=0;strokeColor=#666666;strokeWidth=1;align=center;verticalAlign=middle;fontFamily=Gloria Hallelujah;fontSource=https%3A%2F%2Ffonts.googleapis.com%2Fcss%3Ffamily%3DGloria%2BHallelujah;fontSize=16;fontColor=default;labelBackgroundColor=default;endArrow=classic;endFill=1;flowAnimation=0;" edge="1" parent="1" source="DkE2EI-Y3YgHdCdcs4yU-80" target="DkE2EI-Y3YgHdCdcs4yU-8">
          <mxGeometry relative="1" as="geometry" />
        </mxCell>
        <mxCell id="DkE2EI-Y3YgHdCdcs4yU-82" style="edgeStyle=orthogonalEdgeStyle;curved=1;rounded=0;sketch=1;jiggle=2;curveFitting=1;orthogonalLoop=1;jettySize=auto;html=1;exitX=1;exitY=0.75;exitDx=0;exitDy=0;entryX=0;entryY=0.5;entryDx=0;entryDy=0;strokeColor=#666666;strokeWidth=1;align=center;verticalAlign=middle;fontFamily=Gloria Hallelujah;fontSource=https%3A%2F%2Ffonts.googleapis.com%2Fcss%3Ffamily%3DGloria%2BHallelujah;fontSize=16;fontColor=default;labelBackgroundColor=default;endArrow=classic;endFill=1;flowAnimation=0;" edge="1" parent="1" source="DkE2EI-Y3YgHdCdcs4yU-80" target="DkE2EI-Y3YgHdCdcs4yU-16">
          <mxGeometry relative="1" as="geometry" />
        </mxCell>
        <mxCell id="DkE2EI-Y3YgHdCdcs4yU-80" value="OWASP Top 10 API Security" style="text;html=1;align=center;verticalAlign=middle;whiteSpace=wrap;rounded=0;fontFamily=Gloria Hallelujah;fontSource=https%3A%2F%2Ffonts.googleapis.com%2Fcss%3Ffamily%3DGloria%2BHallelujah;fontSize=12;fontColor=default;labelBackgroundColor=default;sketch=1;curveFitting=1;jiggle=2;" vertex="1" parent="1">
          <mxGeometry x="-180" y="835" width="90" height="40" as="geometry" />
        </mxCell>
      </root>
    </mxGraphModel>
  </diagram>
</mxfile>
